<svg id="black-male-user-symbol" xmlns="http://www.w3.org/2000/svg" width="25.021" height="29.829" viewBox="0 0 25.021 29.829">
  <path id="Path_1" data-name="Path 1" d="M28.488,23.55l-.1.121a16.108,16.108,0,0,1-12.41,6.159A16.107,16.107,0,0,1,3.567,23.67l-.1-.121.024-.155a12.79,12.79,0,0,1,6.133-9.432l.236-.136.188.2a8.177,8.177,0,0,0,11.86,0l.188-.2.236.136a12.793,12.793,0,0,1,6.134,9.432ZM15.978,14.9A7.448,7.448,0,1,0,8.53,7.448,7.457,7.457,0,0,0,15.978,14.9Z" transform="translate(-3.467)" fill="#fff"/>
</svg>

